# xmcd
#
# Track frame offsets:
# 150
# 12805
# 24247
# 35262
# 53002
# 65402
# 76042
# 89412
# 102070
# 117032
# 127840
# 141095
# 154442
# 169775
# 182052
# 197875
# 208082
# 219732
# 231542
# 244837
# 255217
# 270402
# 284472
# 296450
#
# Disc length: 4092 seconds
#
#
# Revision: 2
# Processed by: cddbd v1.5.1PL0 Copyright (c) Steve Scherf et al.
# Submitted via: FreeRIP 2.91 
#
DISCID=4b0ffa18
DTITLE=KENNY ROGERS AND DOLLY PARTON - KENNY AND DOLLY - 24 COUNTRY HITS
DYEAR=1900
DGENRE=Country
TTITLE0=REUBEN JAMES
TTITLE1=HONKY TONK ANGELS
TTITLE2=SHE EVEN WOKE ME UP TO SAY GOODBYE
TTITLE3=SOMETHING'S BURNING
TTITLE4=MAKIN' BELIEVE
TTITLE5=TRYING JUST AS HARD
TTITLE6=SLEEP COMES EASY
TTITLE7=TWO LITTLE ORPHANS
TTITLE8=HEED TO CALL
TTITLE9=WE ALL GOT TO HELP EACH OTHER
TTITLE10=LITTLE BLOSSOM
TTITLE11=RUN THROUGH YOUR MIND
TTITLE12=FOR THE GOOD TIMES
TTITLE13=LETTER TO HEAVEN
TTITLE14=MY WASHINGTON WOMAN
TTITLE15=WHERE DOES ROSIE GO
TTITLE16=ME AND BOBBY MCGEE
TTITLE17=POEM FOR MY LITTLE LADY
TTITLE18=RUBY, DON'T TAKE YOUR LOVE TO TOWN
TTITLE19=RELEASE ME
TTITLE20=CONDITIONS (JUST DROPPED IN)
TTITLE21=SUNSHINE
TTITLE22=ELVIRA
TTITLE23=TICKET TO NOWHERE
EXTD=ID3G:   2
EXTT0=
EXTT1=
EXTT2=
EXTT3=
EXTT4=
EXTT5=
EXTT6=
EXTT7=
EXTT8=
EXTT9=
EXTT10=
EXTT11=
EXTT12=
EXTT13=
EXTT14=
EXTT15=
EXTT16=
EXTT17=
EXTT18=
EXTT19=
EXTT20=
EXTT21=
EXTT22=
EXTT23=
PLAYORDER=
